<mxfile host="app.diagrams.net" modified="2022-06-14T07:14:45.542Z" agent="5.0 (Windows NT 10.0; Win64; x64) AppleWebKit/537.36 (KHTML, like Gecko) Chrome/100.0.4896.127 Safari/537.36 Edg/100.0.1185.50" etag="fwF9B2AjfV6BTQ_zNNe5" version="16.6.6" type="github">
  <diagram id="piNLZxqHuwmFInW--XqS" name="第 1 页">
    <mxGraphModel dx="2234" dy="1223" grid="1" gridSize="10" guides="1" tooltips="1" connect="1" arrows="1" fold="1" page="1" pageScale="1" pageWidth="827" pageHeight="1169" math="0" shadow="0">
      <root>
        <mxCell id="0" />
        <mxCell id="1" parent="0" />
        <mxCell id="bFt4A3IlxeqsHBkxx9xx-9" style="edgeStyle=orthogonalEdgeStyle;rounded=0;orthogonalLoop=1;jettySize=auto;html=1;entryX=0;entryY=0.5;entryDx=0;entryDy=0;" edge="1" parent="1" source="bFt4A3IlxeqsHBkxx9xx-1" target="bFt4A3IlxeqsHBkxx9xx-2">
          <mxGeometry relative="1" as="geometry" />
        </mxCell>
        <mxCell id="bFt4A3IlxeqsHBkxx9xx-10" style="edgeStyle=orthogonalEdgeStyle;rounded=0;orthogonalLoop=1;jettySize=auto;html=1;" edge="1" parent="1" source="bFt4A3IlxeqsHBkxx9xx-1" target="bFt4A3IlxeqsHBkxx9xx-3">
          <mxGeometry relative="1" as="geometry" />
        </mxCell>
        <mxCell id="bFt4A3IlxeqsHBkxx9xx-18" style="edgeStyle=orthogonalEdgeStyle;rounded=0;orthogonalLoop=1;jettySize=auto;html=1;entryX=0;entryY=0.75;entryDx=0;entryDy=0;" edge="1" parent="1" source="bFt4A3IlxeqsHBkxx9xx-1" target="bFt4A3IlxeqsHBkxx9xx-14">
          <mxGeometry relative="1" as="geometry" />
        </mxCell>
        <mxCell id="bFt4A3IlxeqsHBkxx9xx-38" style="edgeStyle=orthogonalEdgeStyle;rounded=0;orthogonalLoop=1;jettySize=auto;html=1;entryX=0;entryY=0.5;entryDx=0;entryDy=0;" edge="1" parent="1" source="bFt4A3IlxeqsHBkxx9xx-1" target="bFt4A3IlxeqsHBkxx9xx-21">
          <mxGeometry relative="1" as="geometry" />
        </mxCell>
        <mxCell id="bFt4A3IlxeqsHBkxx9xx-1" value="文献管理系统" style="rounded=0;whiteSpace=wrap;html=1;" vertex="1" parent="1">
          <mxGeometry x="84" y="190" width="120" height="60" as="geometry" />
        </mxCell>
        <mxCell id="bFt4A3IlxeqsHBkxx9xx-31" style="edgeStyle=orthogonalEdgeStyle;rounded=0;orthogonalLoop=1;jettySize=auto;html=1;entryX=0;entryY=0.5;entryDx=0;entryDy=0;" edge="1" parent="1" source="bFt4A3IlxeqsHBkxx9xx-2" target="bFt4A3IlxeqsHBkxx9xx-15">
          <mxGeometry relative="1" as="geometry" />
        </mxCell>
        <mxCell id="bFt4A3IlxeqsHBkxx9xx-32" style="edgeStyle=orthogonalEdgeStyle;rounded=0;orthogonalLoop=1;jettySize=auto;html=1;exitX=1;exitY=0.5;exitDx=0;exitDy=0;" edge="1" parent="1" source="bFt4A3IlxeqsHBkxx9xx-2" target="bFt4A3IlxeqsHBkxx9xx-27">
          <mxGeometry relative="1" as="geometry" />
        </mxCell>
        <mxCell id="bFt4A3IlxeqsHBkxx9xx-2" value="权限管理" style="rounded=0;whiteSpace=wrap;html=1;" vertex="1" parent="1">
          <mxGeometry x="294" y="90" width="120" height="60" as="geometry" />
        </mxCell>
        <mxCell id="bFt4A3IlxeqsHBkxx9xx-11" style="edgeStyle=orthogonalEdgeStyle;rounded=0;orthogonalLoop=1;jettySize=auto;html=1;entryX=0;entryY=0.75;entryDx=0;entryDy=0;" edge="1" parent="1" source="bFt4A3IlxeqsHBkxx9xx-3" target="bFt4A3IlxeqsHBkxx9xx-4">
          <mxGeometry relative="1" as="geometry" />
        </mxCell>
        <mxCell id="bFt4A3IlxeqsHBkxx9xx-16" style="edgeStyle=orthogonalEdgeStyle;rounded=0;orthogonalLoop=1;jettySize=auto;html=1;" edge="1" parent="1" source="bFt4A3IlxeqsHBkxx9xx-3" target="bFt4A3IlxeqsHBkxx9xx-5">
          <mxGeometry relative="1" as="geometry" />
        </mxCell>
        <mxCell id="bFt4A3IlxeqsHBkxx9xx-17" style="edgeStyle=orthogonalEdgeStyle;rounded=0;orthogonalLoop=1;jettySize=auto;html=1;entryX=0;entryY=0.5;entryDx=0;entryDy=0;" edge="1" parent="1" source="bFt4A3IlxeqsHBkxx9xx-3" target="bFt4A3IlxeqsHBkxx9xx-6">
          <mxGeometry relative="1" as="geometry" />
        </mxCell>
        <mxCell id="bFt4A3IlxeqsHBkxx9xx-3" value="用户管理" style="rounded=0;whiteSpace=wrap;html=1;" vertex="1" parent="1">
          <mxGeometry x="294" y="190" width="120" height="60" as="geometry" />
        </mxCell>
        <mxCell id="bFt4A3IlxeqsHBkxx9xx-4" value="用户注册" style="rounded=0;whiteSpace=wrap;html=1;" vertex="1" parent="1">
          <mxGeometry x="474" y="160" width="120" height="60" as="geometry" />
        </mxCell>
        <mxCell id="bFt4A3IlxeqsHBkxx9xx-5" value="用户登录" style="rounded=0;whiteSpace=wrap;html=1;" vertex="1" parent="1">
          <mxGeometry x="474" y="230" width="120" height="60" as="geometry" />
        </mxCell>
        <mxCell id="bFt4A3IlxeqsHBkxx9xx-6" value="用户个人信息修改" style="rounded=0;whiteSpace=wrap;html=1;" vertex="1" parent="1">
          <mxGeometry x="474" y="300" width="120" height="60" as="geometry" />
        </mxCell>
        <mxCell id="bFt4A3IlxeqsHBkxx9xx-33" style="edgeStyle=orthogonalEdgeStyle;rounded=0;orthogonalLoop=1;jettySize=auto;html=1;entryX=0;entryY=0.5;entryDx=0;entryDy=0;" edge="1" parent="1" source="bFt4A3IlxeqsHBkxx9xx-14" target="bFt4A3IlxeqsHBkxx9xx-20">
          <mxGeometry relative="1" as="geometry" />
        </mxCell>
        <mxCell id="bFt4A3IlxeqsHBkxx9xx-34" style="edgeStyle=orthogonalEdgeStyle;rounded=0;orthogonalLoop=1;jettySize=auto;html=1;" edge="1" parent="1" source="bFt4A3IlxeqsHBkxx9xx-14" target="bFt4A3IlxeqsHBkxx9xx-23">
          <mxGeometry relative="1" as="geometry" />
        </mxCell>
        <mxCell id="bFt4A3IlxeqsHBkxx9xx-36" style="edgeStyle=orthogonalEdgeStyle;rounded=0;orthogonalLoop=1;jettySize=auto;html=1;entryX=0;entryY=0.5;entryDx=0;entryDy=0;" edge="1" parent="1" source="bFt4A3IlxeqsHBkxx9xx-14" target="bFt4A3IlxeqsHBkxx9xx-29">
          <mxGeometry relative="1" as="geometry" />
        </mxCell>
        <mxCell id="bFt4A3IlxeqsHBkxx9xx-37" style="edgeStyle=orthogonalEdgeStyle;rounded=0;orthogonalLoop=1;jettySize=auto;html=1;entryX=0;entryY=0.5;entryDx=0;entryDy=0;" edge="1" parent="1" source="bFt4A3IlxeqsHBkxx9xx-14" target="bFt4A3IlxeqsHBkxx9xx-30">
          <mxGeometry relative="1" as="geometry" />
        </mxCell>
        <mxCell id="bFt4A3IlxeqsHBkxx9xx-14" value="文献管理" style="rounded=0;whiteSpace=wrap;html=1;" vertex="1" parent="1">
          <mxGeometry x="294" y="450" width="120" height="60" as="geometry" />
        </mxCell>
        <mxCell id="bFt4A3IlxeqsHBkxx9xx-15" value="权限的鉴别" style="rounded=0;whiteSpace=wrap;html=1;" vertex="1" parent="1">
          <mxGeometry x="474" y="20" width="120" height="60" as="geometry" />
        </mxCell>
        <mxCell id="bFt4A3IlxeqsHBkxx9xx-20" value="文献的增删改" style="rounded=0;whiteSpace=wrap;html=1;" vertex="1" parent="1">
          <mxGeometry x="474" y="390" width="120" height="60" as="geometry" />
        </mxCell>
        <mxCell id="bFt4A3IlxeqsHBkxx9xx-21" value="评论" style="rounded=0;whiteSpace=wrap;html=1;" vertex="1" parent="1">
          <mxGeometry x="294" y="630" width="120" height="60" as="geometry" />
        </mxCell>
        <mxCell id="bFt4A3IlxeqsHBkxx9xx-23" value="文献的查询" style="rounded=0;whiteSpace=wrap;html=1;" vertex="1" parent="1">
          <mxGeometry x="474" y="470" width="120" height="60" as="geometry" />
        </mxCell>
        <mxCell id="bFt4A3IlxeqsHBkxx9xx-24" value="文献的搜索" style="rounded=0;whiteSpace=wrap;html=1;" vertex="1" parent="1">
          <mxGeometry x="624" y="470" width="120" height="60" as="geometry" />
        </mxCell>
        <mxCell id="bFt4A3IlxeqsHBkxx9xx-25" value="文献的排序" style="rounded=0;whiteSpace=wrap;html=1;" vertex="1" parent="1">
          <mxGeometry x="624" y="550" width="120" height="60" as="geometry" />
        </mxCell>
        <mxCell id="bFt4A3IlxeqsHBkxx9xx-27" value="权限的修改与查询" style="rounded=0;whiteSpace=wrap;html=1;" vertex="1" parent="1">
          <mxGeometry x="474" y="90" width="120" height="60" as="geometry" />
        </mxCell>
        <mxCell id="bFt4A3IlxeqsHBkxx9xx-29" value="笔记的增删改" style="rounded=0;whiteSpace=wrap;html=1;" vertex="1" parent="1">
          <mxGeometry x="474" y="550" width="120" height="60" as="geometry" />
        </mxCell>
        <mxCell id="bFt4A3IlxeqsHBkxx9xx-30" value="参考文献的增删改" style="rounded=0;whiteSpace=wrap;html=1;" vertex="1" parent="1">
          <mxGeometry x="474" y="630" width="120" height="60" as="geometry" />
        </mxCell>
      </root>
    </mxGraphModel>
  </diagram>
</mxfile>
